<?xml version="1.0" encoding="UTF-8" standalone="no"?>
<svg
   xmlns:dc="http://purl.org/dc/elements/1.1/"
   xmlns:cc="http://creativecommons.org/ns#"
   xmlns:rdf="http://www.w3.org/1999/02/22-rdf-syntax-ns#"
   xmlns:svg="http://www.w3.org/2000/svg"
   xmlns="http://www.w3.org/2000/svg"
   xmlns:xlink="http://www.w3.org/1999/xlink"
   id="svg8"
   version="1.1"
   viewBox="0 0 480 360"
   height="360"
   width="480">
  <defs
     id="defs2">
    <linearGradient
       id="linearGradient839">
      <stop
         id="stop835"
         offset="0"
         style="stop-color:#00d1f9;stop-opacity:1" />
      <stop
         id="stop837"
         offset="1"
         style="stop-color:#000ee7;stop-opacity:1" />
    </linearGradient>
    <linearGradient
       gradientUnits="userSpaceOnUse"
       y2="420"
       x2="360"
       y1="-60"
       x1="120"
       id="linearGradient841"
       xlink:href="#linearGradient839" />
  </defs>
  <metadata
     id="metadata5">
    <rdf:RDF>
      <cc:Work
         rdf:about="">
        <dc:format>image/svg+xml</dc:format>
        <dc:type
           rdf:resource="http://purl.org/dc/dcmitype/StillImage" />
        <dc:title></dc:title>
      </cc:Work>
    </rdf:RDF>
  </metadata>
  <g
     id="layer1">
    <rect
       y="0"
       x="0"
       height="360"
       width="480"
       id="rect833"
       style="fill:url(#linearGradient841);stroke-width:1.46264;fill-opacity:1" />
    <path
       d="M 240 30 C 120 30 90 60 90 180 C 90 300 120 330 240 330 C 360 330 390 300 390 180 C 390 60 360 30 240 30 z M 182.40039 108.19922 L 201.19922 108.19922 L 245.59961 239.40039 L 227.80078 239.40039 L 215.40039 199.40039 L 167.59961 199.40039 L 155 239.40039 L 138 239.40039 L 182.40039 108.19922 z M 191 121.80078 C 189 129.40078 186.93411 136.86589 184.80078 144.19922 C 182.66745 151.39922 180.4 158.66667 178 166 L 171.80078 186 L 211.19922 186 L 205 166 C 202.6 158.66667 200.33255 151.39922 198.19922 144.19922 C 196.06589 136.86589 193.93411 129.40078 191.80078 121.80078 L 191 121.80078 z M 303.87109 139.80078 C 315.73776 139.80078 324.33854 143.46745 329.67188 150.80078 C 335.00521 158.00078 337.67188 167.66745 337.67188 179.80078 L 337.67188 239.40039 L 324.07227 239.40039 L 322.67188 227.80078 L 322.07227 227.80078 C 317.4056 231.66745 312.4056 235.00078 307.07227 237.80078 C 301.73893 240.46745 296.00443 241.80078 289.87109 241.80078 C 281.73776 241.80078 274.93932 239.39961 269.47266 234.59961 C 264.13932 229.79961 261.47266 222.99922 261.47266 214.19922 C 261.47266 203.53255 266.20521 195.40078 275.67188 189.80078 C 285.13854 184.06745 300.27227 180.06745 321.07227 177.80078 C 321.07227 174.73411 320.73893 171.73411 320.07227 168.80078 C 319.53893 165.86745 318.53893 163.26667 317.07227 161 C 315.6056 158.73333 313.53776 156.93294 310.87109 155.59961 C 308.33776 154.13294 305.07227 153.40039 301.07227 153.40039 C 295.47227 153.40039 290.20482 154.46628 285.27148 156.59961 C 280.33815 158.73294 275.93893 161.13411 272.07227 163.80078 L 265.67188 152.40039 C 270.20521 149.46706 275.73815 146.66667 282.27148 144 C 288.80482 141.2 296.00443 139.80078 303.87109 139.80078 z M 321.07227 188.59961 C 312.93893 189.66628 306.07266 190.93372 300.47266 192.40039 C 295.00599 193.86706 290.53893 195.59961 287.07227 197.59961 C 283.73893 199.59961 281.27188 201.93294 279.67188 204.59961 C 278.20521 207.13294 277.47266 209.93333 277.47266 213 C 277.47266 218.6 279.13932 222.6 282.47266 225 C 285.80599 227.4 289.87187 228.59961 294.67188 228.59961 C 299.33854 228.59961 303.73776 227.53372 307.87109 225.40039 C 312.00443 223.13372 316.4056 219.86628 321.07227 215.59961 L 321.07227 188.59961 z "
       style="fill:#ffffff;fill-opacity:1"
       id="rect845" />
  </g>
</svg>
